# xmcd CD database file
#
# Track frame offsets:
#	150
#	13460
#	25868
#	46360
#	59221
#	74289
#	87208
#	105608
#	119552
#	131357
#	139914
#	163454
#	180338
#	194056
#	210133
#	213711
#	226777
#	255513
#	268465
#	281326
#	302974
#	313564
#
# Disc length: 4499 seconds
#
# Revision: 0
# Processed by: cddbd v1.5.2PL0 Copyright (c) Steve Scherf et al.
# Submitted via: CDex 1.70beta2
#
DISCID=53119116
DTITLE=Aaron Watson - Live - Deep In The Heart Of Texas
DYEAR=2009
DGENRE=Country
TTITLE0=Love Makin Song
TTITLE1=Heyday Tonight
TTITLE2=Except for Jesse
TTITLE3=Hearts Are Breaking Across Texas
TTITLE4=Rollercoaster Ride
TTITLE5=Angels and Outlaws
TTITLE6=San Angelo
TTITLE7=All American Country Girl
TTITLE8=Bob Wills Is Still The King
TTITLE9=Grandad, Paw-Paw, John Pop, and Mr Pete
TTITLE10=Barbed Wire Halo
TTITLE11=3rd Gear and 17
TTITLE12=Wake Up and Smell The Coffee
TTITLE13=Unbelivably Beautiful
TTITLE14=Thanks for Freedom
TTITLE15=The Fighting Side Of Me
TTITLE16=Lonely Lubbock Nights
TTITLE17=East Bound and Down
TTITLE18=Breaker Breaker One Nine
TTITLE19=Off The Record
TTITLE20=The Orphans of The Brazos Band
TTITLE21=Reckless
EXTD=YEAR: 2009
EXTT0=
EXTT1=
EXTT2=
EXTT3=
EXTT4=
EXTT5=
EXTT6=
EXTT7=
EXTT8=
EXTT9=
EXTT10=
EXTT11=
EXTT12=
EXTT13=
EXTT14=
EXTT15=
EXTT16=
EXTT17=
EXTT18=
EXTT19=
EXTT20=
EXTT21=
PLAYORDER=
